<svg width="800" height="800" viewBox="0 0 800 800" fill="none" xmlns="http://www.w3.org/2000/svg">
<g clip-path="url(#clip0_38079_18760)">
<path d="M787.95 496.762C734.525 711.05 517.475 841.45 303.162 788.025C88.95 734.6 -41.4625 517.55 11.975 303.275C65.375 88.9624 282.412 -41.4626 496.662 11.9624C710.962 65.3874 841.375 282.462 787.95 496.762Z" fill="#FFC92C"/>
<path d="M576.325 343.013C584.275 289.788 543.75 261.175 488.338 242.088L506.313 169.988L462.413 159.05L444.913 229.25C433.388 226.375 421.538 223.662 409.763 220.975L427.388 150.312L383.525 139.375L365.538 211.45C355.988 209.275 346.613 207.125 337.513 204.863L337.563 204.638L277.038 189.525L265.363 236.4C265.363 236.4 297.925 243.862 297.238 244.325C315.013 248.762 318.238 260.525 317.688 269.85L297.213 351.988C298.438 352.3 300.025 352.75 301.775 353.45L297.15 352.3L268.438 467.363C266.263 472.763 260.75 480.862 248.325 477.787C248.763 478.425 216.425 469.825 216.425 469.825L194.638 520.075L251.763 534.312C262.388 536.975 272.8 539.762 283.038 542.387L264.875 615.325L308.713 626.263L326.713 554.113C338.675 557.363 350.3 560.362 361.675 563.187L343.75 635L387.638 645.938L405.8 573.15C480.638 587.313 536.925 581.6 560.588 513.925C579.675 459.425 559.65 427.987 520.275 407.475C548.95 400.837 570.563 381.975 576.325 343.013ZM476.038 483.625C462.463 538.125 370.713 508.675 340.95 501.275L365.05 404.663C394.8 412.088 490.175 426.787 476.038 483.625ZM489.6 342.225C477.225 391.8 400.85 366.612 376.063 360.437L397.913 272.813C422.7 278.988 502.5 290.513 489.6 342.225Z" fill="white"/>
</g>
<defs>
<clipPath id="clip0_38079_18760">
<rect width="800" height="800" fill="white"/>
</clipPath>
</defs>
</svg>
