<svg width="206" height="207" viewBox="0 0 206 207" fill="none" xmlns="http://www.w3.org/2000/svg">
<mask id="mask0_6_672" style="mask-type:alpha" maskUnits="userSpaceOnUse" x="25" y="24" width="18" height="18">
<circle cx="34" cy="33" r="9" fill="#D9D9D9"/>
</mask>
<g mask="url(#mask0_6_672)">
<rect x="25" y="22" width="26" height="22.7042" fill="url(#paint0_linear_6_672)"/>
</g>
<mask id="mask1_6_672" style="mask-type:alpha" maskUnits="userSpaceOnUse" x="124" y="24" width="18" height="18">
<circle cx="133" cy="33" r="9" fill="#D9D9D9"/>
</mask>
<g mask="url(#mask1_6_672)">
<rect x="124" y="22" width="26" height="22.7042" fill="url(#paint1_linear_6_672)"/>
</g>
<mask id="mask2_6_672" style="mask-type:alpha" maskUnits="userSpaceOnUse" x="157" y="140" width="18" height="18">
<circle cx="166" cy="149" r="9" fill="#D9D9D9"/>
</mask>
<g mask="url(#mask2_6_672)">
<rect x="157" y="138" width="26" height="22.7042" fill="url(#paint2_linear_6_672)"/>
</g>
<mask id="mask3_6_672" style="mask-type:alpha" maskUnits="userSpaceOnUse" x="43" y="178" width="18" height="18">
<circle cx="52" cy="187" r="9" fill="#D9D9D9"/>
</mask>
<g mask="url(#mask3_6_672)">
<rect x="43" y="176" width="26" height="22.7042" fill="url(#paint3_linear_6_672)"/>
</g>
<defs>
<linearGradient id="paint0_linear_6_672" x1="24" y1="28" x2="37.7213" y2="44.8836" gradientUnits="userSpaceOnUse">
<stop stop-color="#CCA001"/>
<stop offset="0.503658" stop-color="#CCA001"/>
<stop offset="1" stop-color="#FCDE4A"/>
</linearGradient>
<linearGradient id="paint1_linear_6_672" x1="123" y1="28" x2="136.721" y2="44.8836" gradientUnits="userSpaceOnUse">
<stop stop-color="#CCA001"/>
<stop offset="0.503658" stop-color="#CCA001"/>
<stop offset="0.975" stop-color="#FCDE4A"/>
</linearGradient>
<linearGradient id="paint2_linear_6_672" x1="156" y1="144" x2="169.721" y2="160.884" gradientUnits="userSpaceOnUse">
<stop stop-color="#CCA001"/>
<stop offset="0.503658" stop-color="#CCA001"/>
<stop offset="1" stop-color="#FCDE4A"/>
</linearGradient>
<linearGradient id="paint3_linear_6_672" x1="42" y1="182" x2="55.7213" y2="198.884" gradientUnits="userSpaceOnUse">
<stop stop-color="#CCA001"/>
<stop offset="0.503658" stop-color="#CCA001"/>
<stop offset="1" stop-color="#FCDE4A"/>
</linearGradient>
</defs>
</svg>
