<svg width="206" height="207" viewBox="0 0 206 207" fill="none" xmlns="http://www.w3.org/2000/svg">
<path d="M97.8516 22.1294C100.732 21.052 103.878 20.9082 106.845 21.7163L108.199 22.1499L168.231 44.6616C170.834 45.6376 173.106 47.3328 174.782 49.5503C176.453 51.7604 177.462 54.3985 177.695 57.1587L177.75 58.4565V104.429C177.75 117.888 174.115 131.097 167.231 142.662C160.348 154.226 150.469 163.718 138.639 170.134L136.39 171.309L107.642 185.683C106.365 186.321 104.969 186.687 103.544 186.761C102.13 186.834 100.716 186.617 99.3887 186.123L98.2998 185.654L69.5703 171.29C57.5323 165.27 47.3426 156.112 40.0771 144.783C33.0388 133.807 28.9971 121.188 28.3438 108.181L28.292 106.921L28.25 104.388V58.397L28.2588 57.8765C28.351 55.2798 29.1319 52.7507 30.5254 50.5503C32.0051 48.2137 34.1156 46.3434 36.6123 45.1548L37.8223 44.6411L97.8516 22.1294ZM99.6543 67.8013C101.481 67.1178 103.474 67.0132 105.362 67.4995L106.406 67.8247L130.378 76.814C132.047 77.4402 133.508 78.5233 134.592 79.939C135.666 81.3419 136.327 83.0164 136.504 84.7739L136.55 85.7739V104.137C136.55 110.075 134.974 115.906 131.983 121.036C128.998 126.156 124.71 130.393 119.555 133.318L117.946 134.181L106.492 139.899L106.49 139.901C105.545 140.374 104.514 140.65 103.459 140.712C102.419 140.774 101.378 140.625 100.396 140.278L99.4414 139.875L87.999 134.15V134.149L87.5029 133.896C82.408 131.242 78.0773 127.322 74.9287 122.509C71.6843 117.55 69.8111 111.82 69.5 105.903L69.4502 104.103V85.7271C69.4504 83.9443 69.9509 82.197 70.8955 80.6851C71.8342 79.1827 73.1738 77.9723 74.7627 77.1899L75.6865 76.7886L99.6543 67.8013ZM124.384 87.5649L122.761 86.9565L103.878 79.8745L103 79.5454L102.122 79.8745L83.2393 86.9565L81.6162 87.5649V104.147C81.6173 107.842 82.5768 111.474 84.3994 114.688C86.2221 117.902 88.8462 120.59 92.0166 122.488L92.0576 122.512L92.0996 122.536L93.3525 123.222L93.3936 123.245L93.4355 123.266L101.882 127.489L103 128.047L104.118 127.489L112.563 123.265C115.871 121.612 118.694 119.13 120.755 116.06C122.816 112.99 124.047 109.438 124.325 105.75L124.328 105.702L124.33 105.653L124.382 104.228L124.384 104.183V87.5649ZM165.583 56.6646L163.961 56.0562L103.878 33.5249L103 33.1958L102.122 33.5249L42.0391 56.0562L40.417 56.6646V104.429C40.4172 115.65 43.434 126.664 49.1514 136.318C54.8688 145.972 63.0762 153.912 72.915 159.306L72.9365 159.318L72.958 159.329L74.9746 160.384L74.9951 160.395L101.882 173.838L103 174.398L104.118 173.838L130.983 160.406C141.021 155.388 149.525 147.763 155.604 138.331C161.684 128.898 165.115 118.004 165.539 106.79V106.766L165.54 106.743L165.583 104.477V56.6646Z" fill="white" stroke="#161730" stroke-width="5"/>
</svg>
